<svg width="1em" height="1em" role="presentation" focusable="false" viewBox="0 0 24 24" xmlns="http://www.w3.org/2000/svg"><path fill-rule="evenodd" clip-rule="evenodd" d="M13.1213 2.80762C12.3403 2.02657 11.0739 2.02657 10.2929 2.80762L3.92891 9.17158C1.19524 11.9052 1.19524 16.3374 3.92891 19.0711C6.66258 21.8047 11.0947 21.8047 13.8284 19.0711L20.1924 12.7071C20.9734 11.9261 20.9734 10.6597 20.1924 9.87869L13.1213 2.80762ZM18.7782 11.2929L11.7071 4.22183L5.34313 10.5858C3.39051 12.5384 3.39051 15.7042 5.34313 17.6569C7.29575 19.6095 10.4616 19.6095 12.4142 17.6569L18.7782 11.2929ZM10 14C10 14.5523 9.55228 15 9 15C8.44772 15 8 14.5523 8 14C8 13.4477 8.44772 13 9 13C9.55228 13 10 13.4477 10 14ZM12 14C12 15.6569 10.6569 17 9 17C7.34315 17 6 15.6569 6 14C6 12.3431 7.34315 11 9 11C10.6569 11 12 12.3431 12 14Z" fill="currentColor"></path></svg>