<svg xmlns="http://www.w3.org/2000/svg" width="64" height="48" viewBox="0 0 64 48" fill="none">
<g clip-path="url(#clip0_761_573049)">
<mask id="mask0_761_573049" style="mask-type:alpha" maskUnits="userSpaceOnUse" x="0" y="0" width="48" height="48">
<path d="M48 0H0V48H16L48 0Z" fill="#D9D9D9"/>
</mask>
<g mask="url(#mask0_761_573049)">
<rect width="64" height="48" fill="white"/>
<rect x="6" y="18" width="10" height="24" rx="3" fill="#DCDFE4"/>
<rect x="20" y="18" width="10" height="20" rx="3" fill="#DCDFE4"/>
<rect x="34" y="18" width="10" height="16" rx="3" fill="#DCDFE4"/>
<mask id="path-5-outside-1_761_573049" maskUnits="userSpaceOnUse" x="0" y="0" width="64" height="13" fill="black">
<rect fill="white" width="64" height="13"/>
<path d="M0 0H64V12H0V0Z"/>
</mask>
<path d="M64 11H0V13H64V11Z" fill="#091E42" fill-opacity="0.141176" mask="url(#path-5-outside-1_761_573049)"/>
<rect x="6" y="4" width="12" height="4" rx="2" fill="#DCDFE4"/>
</g>
<mask id="mask1_761_573049" style="mask-type:alpha" maskUnits="userSpaceOnUse" x="16" y="0" width="48" height="48">
<path d="M48 0H64V48H16L48 0Z" fill="#D9D9D9"/>
</mask>
<g mask="url(#mask1_761_573049)">
<rect width="64" height="48" fill="#161A1D"/>
<rect x="20" y="18" width="10" height="20" rx="3" fill="#454F59"/>
<rect x="34" y="18" width="10" height="16" rx="3" fill="#454F59"/>
<rect x="48" y="18" width="10" height="24" rx="3" fill="#454F59"/>
<mask id="path-12-outside-2_761_573049" maskUnits="userSpaceOnUse" x="0" y="0" width="64" height="13" fill="black">
<rect fill="white" width="64" height="13"/>
<path d="M0 0H64V12H0V0Z"/>
</mask>
<path d="M64 11H0V13H64V11Z" fill="#A6C5E2" fill-opacity="0.160784" mask="url(#path-12-outside-2_761_573049)"/>
<rect x="6" y="4" width="12" height="4" rx="2" fill="#454F59"/>
<rect x="54" y="4" width="4" height="4" rx="2" fill="#454F59"/>
</g>
</g>
<defs>
<clipPath id="clip0_761_573049">
<rect width="64" height="48" fill="white"/>
</clipPath>
</defs>
</svg>