<svg width="24" height="24" role="presentation" focusable="false" viewBox="0 0 24 24" xmlns="http://www.w3.org/2000/svg"><path fill-rule="evenodd" clip-rule="evenodd" d="M5 5C3.89543 5 3 5.89543 3 7V17C3 18.1046 3.89543 19 5 19H19C20.1046 19 21 18.1046 21 17V7C21 5.89543 20.1046 5 19 5H5ZM19 7H5V13H19V7ZM17 16C17 16.5523 17.4477 17 18 17C18.5523 17 19 16.5523 19 16C19 15.4477 18.5523 15 18 15C17.4477 15 17 15.4477 17 16ZM6 17C5.44772 17 5 16.5523 5 16C5 15.4477 5.44772 15 6 15H10C10.5523 15 11 15.4477 11 16C11 16.5523 10.5523 17 10 17H6Z" fill="currentColor"></path></svg>